<mxfile host="app.diagrams.net" agent="Mozilla/5.0 (Macintosh; Intel Mac OS X 10_15_7) AppleWebKit/537.36 (KHTML, like Gecko) Chrome/133.0.0.0 Safari/537.36" version="26.0.16">
  <diagram name="Страница — 1" id="L7kD6hIb4xmbZviU1xUv">
    <mxGraphModel dx="724" dy="405" grid="1" gridSize="10" guides="1" tooltips="1" connect="1" arrows="1" fold="1" page="1" pageScale="1" pageWidth="827" pageHeight="1169" math="0" shadow="0">
      <root>
        <mxCell id="0" />
        <mxCell id="1" parent="0" />
        <mxCell id="ZpyMlPPspqRlZCDdYQeG-15" value="&lt;b&gt;TimerExpired/Off&lt;/b&gt;" style="edgeStyle=orthogonalEdgeStyle;rounded=0;orthogonalLoop=1;jettySize=auto;html=1;curved=1;exitX=0;exitY=1;exitDx=0;exitDy=0;entryX=0.5;entryY=0;entryDx=0;entryDy=0;" edge="1" parent="1" source="ZpyMlPPspqRlZCDdYQeG-2" target="ZpyMlPPspqRlZCDdYQeG-14">
          <mxGeometry relative="1" as="geometry">
            <mxPoint x="90" y="420" as="targetPoint" />
            <Array as="points">
              <mxPoint x="110" y="298" />
              <mxPoint x="110" y="430" />
              <mxPoint x="105" y="430" />
            </Array>
          </mxGeometry>
        </mxCell>
        <mxCell id="ZpyMlPPspqRlZCDdYQeG-16" value="&lt;b&gt;SelectProgam&lt;/b&gt;" style="edgeStyle=orthogonalEdgeStyle;rounded=0;orthogonalLoop=1;jettySize=auto;html=1;curved=1;entryX=0;entryY=0.5;entryDx=0;entryDy=0;exitX=1;exitY=0.5;exitDx=0;exitDy=0;" edge="1" parent="1" source="ZpyMlPPspqRlZCDdYQeG-2" target="ZpyMlPPspqRlZCDdYQeG-17">
          <mxGeometry relative="1" as="geometry">
            <mxPoint x="400" y="250" as="targetPoint" />
            <mxPoint x="310" y="220" as="sourcePoint" />
            <Array as="points">
              <mxPoint x="310" y="220" />
              <mxPoint x="390" y="220" />
              <mxPoint x="390" y="300" />
            </Array>
          </mxGeometry>
        </mxCell>
        <mxCell id="ZpyMlPPspqRlZCDdYQeG-2" value="machineOn" style="ellipse;whiteSpace=wrap;html=1;aspect=fixed;" vertex="1" parent="1">
          <mxGeometry x="230" y="230" width="80" height="80" as="geometry" />
        </mxCell>
        <mxCell id="ZpyMlPPspqRlZCDdYQeG-12" value="&lt;b&gt;On/StartTimer&lt;/b&gt;" style="edgeStyle=orthogonalEdgeStyle;rounded=0;orthogonalLoop=1;jettySize=auto;html=1;curved=1;entryX=0;entryY=0.5;entryDx=0;entryDy=0;" edge="1" parent="1" source="ZpyMlPPspqRlZCDdYQeG-10" target="ZpyMlPPspqRlZCDdYQeG-2">
          <mxGeometry relative="1" as="geometry">
            <Array as="points">
              <mxPoint x="105" y="270" />
            </Array>
          </mxGeometry>
        </mxCell>
        <mxCell id="ZpyMlPPspqRlZCDdYQeG-10" value="" style="ellipse;whiteSpace=wrap;html=1;aspect=fixed;fillColor=#000000;" vertex="1" parent="1">
          <mxGeometry x="100" y="220" width="10" height="10" as="geometry" />
        </mxCell>
        <mxCell id="ZpyMlPPspqRlZCDdYQeG-14" value="machineOFF" style="ellipse;whiteSpace=wrap;html=1;aspect=fixed;" vertex="1" parent="1">
          <mxGeometry x="65" y="470" width="80" height="80" as="geometry" />
        </mxCell>
        <mxCell id="ZpyMlPPspqRlZCDdYQeG-20" value="&lt;b&gt;TimerExpired/Off&lt;/b&gt;" style="edgeStyle=orthogonalEdgeStyle;rounded=0;orthogonalLoop=1;jettySize=auto;html=1;entryX=1;entryY=0;entryDx=0;entryDy=0;curved=1;exitX=0;exitY=1;exitDx=0;exitDy=0;" edge="1" parent="1" source="ZpyMlPPspqRlZCDdYQeG-17" target="ZpyMlPPspqRlZCDdYQeG-14">
          <mxGeometry relative="1" as="geometry">
            <mxPoint x="434.0100000000002" y="350.01" as="sourcePoint" />
            <mxPoint x="160.0142712474619" y="512.4457287525381" as="targetPoint" />
            <Array as="points">
              <mxPoint x="412" y="351" />
              <mxPoint x="180" y="351" />
              <mxPoint x="180" y="430" />
              <mxPoint x="133" y="430" />
            </Array>
          </mxGeometry>
        </mxCell>
        <mxCell id="ZpyMlPPspqRlZCDdYQeG-24" value="SelectStrenght" style="edgeStyle=orthogonalEdgeStyle;rounded=0;orthogonalLoop=1;jettySize=auto;html=1;curved=1;" edge="1" parent="1" source="ZpyMlPPspqRlZCDdYQeG-17" target="ZpyMlPPspqRlZCDdYQeG-22">
          <mxGeometry relative="1" as="geometry">
            <Array as="points">
              <mxPoint x="440" y="230" />
              <mxPoint x="630" y="230" />
            </Array>
            <mxPoint as="offset" />
          </mxGeometry>
        </mxCell>
        <mxCell id="ZpyMlPPspqRlZCDdYQeG-17" value="Program&lt;div&gt;Selected&lt;/div&gt;" style="ellipse;whiteSpace=wrap;html=1;aspect=fixed;" vertex="1" parent="1">
          <mxGeometry x="400" y="260" width="80" height="80" as="geometry" />
        </mxCell>
        <mxCell id="ZpyMlPPspqRlZCDdYQeG-22" value="Strenght&lt;br&gt;&lt;div&gt;Selected&lt;/div&gt;" style="ellipse;whiteSpace=wrap;html=1;aspect=fixed;" vertex="1" parent="1">
          <mxGeometry x="590" y="260" width="80" height="80" as="geometry" />
        </mxCell>
        <mxCell id="ZpyMlPPspqRlZCDdYQeG-25" value="&lt;b&gt;TimerExpired/Off&lt;/b&gt;" style="edgeStyle=orthogonalEdgeStyle;rounded=0;orthogonalLoop=1;jettySize=auto;html=1;entryX=1;entryY=0;entryDx=0;entryDy=0;curved=1;exitX=0;exitY=1;exitDx=0;exitDy=0;" edge="1" parent="1" source="ZpyMlPPspqRlZCDdYQeG-22">
          <mxGeometry x="-0.0012" relative="1" as="geometry">
            <mxPoint x="422" y="338" as="sourcePoint" />
            <mxPoint x="143" y="492" as="targetPoint" />
            <Array as="points">
              <mxPoint x="520" y="328" />
              <mxPoint x="520" y="400" />
              <mxPoint x="190" y="400" />
              <mxPoint x="190" y="440" />
              <mxPoint x="143" y="440" />
            </Array>
            <mxPoint as="offset" />
          </mxGeometry>
        </mxCell>
        <mxCell id="ZpyMlPPspqRlZCDdYQeG-26" value="Water&lt;br&gt;Quantity&lt;br&gt;&lt;div&gt;Selected&lt;/div&gt;" style="ellipse;whiteSpace=wrap;html=1;aspect=fixed;" vertex="1" parent="1">
          <mxGeometry x="810" y="260" width="80" height="80" as="geometry" />
        </mxCell>
        <mxCell id="ZpyMlPPspqRlZCDdYQeG-27" value="SelectWaterQuantity" style="edgeStyle=orthogonalEdgeStyle;rounded=0;orthogonalLoop=1;jettySize=auto;html=1;curved=1;exitX=1;exitY=0.5;exitDx=0;exitDy=0;entryX=0;entryY=0.5;entryDx=0;entryDy=0;" edge="1" parent="1" source="ZpyMlPPspqRlZCDdYQeG-22" target="ZpyMlPPspqRlZCDdYQeG-26">
          <mxGeometry relative="1" as="geometry">
            <mxPoint x="450" y="270" as="sourcePoint" />
            <mxPoint x="640" y="270" as="targetPoint" />
            <Array as="points">
              <mxPoint x="710" y="300" />
              <mxPoint x="710" y="240" />
              <mxPoint x="800" y="240" />
              <mxPoint x="800" y="300" />
            </Array>
            <mxPoint as="offset" />
          </mxGeometry>
        </mxCell>
        <mxCell id="ZpyMlPPspqRlZCDdYQeG-28" value="&lt;b&gt;TimerExpired/Off&lt;/b&gt;" style="edgeStyle=orthogonalEdgeStyle;rounded=0;orthogonalLoop=1;jettySize=auto;html=1;entryX=0.966;entryY=0.443;entryDx=0;entryDy=0;curved=1;entryPerimeter=0;" edge="1" parent="1" source="ZpyMlPPspqRlZCDdYQeG-26" target="ZpyMlPPspqRlZCDdYQeG-14">
          <mxGeometry x="-0.0012" relative="1" as="geometry">
            <mxPoint x="821.7157287525383" y="360.00427124746193" as="sourcePoint" />
            <mxPoint x="153" y="533.72" as="targetPoint" />
            <Array as="points">
              <mxPoint x="822" y="370" />
              <mxPoint x="730" y="370" />
              <mxPoint x="730" y="442" />
              <mxPoint x="200" y="442" />
              <mxPoint x="200" y="505" />
            </Array>
            <mxPoint as="offset" />
          </mxGeometry>
        </mxCell>
        <mxCell id="ZpyMlPPspqRlZCDdYQeG-31" value="Milk&lt;br&gt;Quantity&lt;br&gt;&lt;div&gt;Selected&lt;/div&gt;" style="ellipse;whiteSpace=wrap;html=1;aspect=fixed;" vertex="1" parent="1">
          <mxGeometry x="1030" y="260" width="80" height="80" as="geometry" />
        </mxCell>
        <mxCell id="ZpyMlPPspqRlZCDdYQeG-32" value="SelectMilkQuantity" style="edgeStyle=orthogonalEdgeStyle;rounded=0;orthogonalLoop=1;jettySize=auto;html=1;curved=1;entryX=0;entryY=0.5;entryDx=0;entryDy=0;" edge="1" parent="1" target="ZpyMlPPspqRlZCDdYQeG-31">
          <mxGeometry relative="1" as="geometry">
            <mxPoint x="890" y="300" as="sourcePoint" />
            <mxPoint x="860" y="270" as="targetPoint" />
            <Array as="points">
              <mxPoint x="930" y="300" />
              <mxPoint x="930" y="240" />
              <mxPoint x="1020" y="240" />
              <mxPoint x="1020" y="300" />
            </Array>
            <mxPoint as="offset" />
          </mxGeometry>
        </mxCell>
        <mxCell id="ZpyMlPPspqRlZCDdYQeG-33" value="&lt;b&gt;TimerExpired/Off&lt;/b&gt;" style="edgeStyle=orthogonalEdgeStyle;rounded=0;orthogonalLoop=1;jettySize=auto;html=1;entryX=0.95;entryY=0.564;entryDx=0;entryDy=0;curved=1;entryPerimeter=0;exitX=0;exitY=1;exitDx=0;exitDy=0;" edge="1" parent="1" source="ZpyMlPPspqRlZCDdYQeG-31" target="ZpyMlPPspqRlZCDdYQeG-14">
          <mxGeometry x="-0.0012" relative="1" as="geometry">
            <mxPoint x="832" y="339" as="sourcePoint" />
            <mxPoint x="152" y="515" as="targetPoint" />
            <Array as="points">
              <mxPoint x="990" y="328" />
              <mxPoint x="990" y="380" />
              <mxPoint x="740" y="380" />
              <mxPoint x="740" y="470" />
              <mxPoint x="210" y="470" />
              <mxPoint x="210" y="515" />
            </Array>
            <mxPoint as="offset" />
          </mxGeometry>
        </mxCell>
        <mxCell id="ZpyMlPPspqRlZCDdYQeG-42" style="edgeStyle=orthogonalEdgeStyle;rounded=0;orthogonalLoop=1;jettySize=auto;html=1;entryX=0;entryY=0.5;entryDx=0;entryDy=0;" edge="1" parent="1" source="ZpyMlPPspqRlZCDdYQeG-35" target="ZpyMlPPspqRlZCDdYQeG-41">
          <mxGeometry relative="1" as="geometry" />
        </mxCell>
        <mxCell id="ZpyMlPPspqRlZCDdYQeG-35" value="Cooked" style="ellipse;whiteSpace=wrap;html=1;aspect=fixed;" vertex="1" parent="1">
          <mxGeometry x="1250" y="260" width="80" height="80" as="geometry" />
        </mxCell>
        <mxCell id="ZpyMlPPspqRlZCDdYQeG-36" value="StartCooking" style="edgeStyle=orthogonalEdgeStyle;rounded=0;orthogonalLoop=1;jettySize=auto;html=1;curved=1;entryX=0;entryY=0.5;entryDx=0;entryDy=0;" edge="1" parent="1" target="ZpyMlPPspqRlZCDdYQeG-35">
          <mxGeometry relative="1" as="geometry">
            <mxPoint x="1110" y="300" as="sourcePoint" />
            <mxPoint x="1080" y="270" as="targetPoint" />
            <Array as="points">
              <mxPoint x="1150" y="300" />
              <mxPoint x="1150" y="240" />
              <mxPoint x="1240" y="240" />
              <mxPoint x="1240" y="300" />
            </Array>
            <mxPoint as="offset" />
          </mxGeometry>
        </mxCell>
        <mxCell id="ZpyMlPPspqRlZCDdYQeG-41" value="" style="ellipse;html=1;shape=endState;fillColor=#000000;strokeColor=#000000;" vertex="1" parent="1">
          <mxGeometry x="1430" y="290" width="20" height="20" as="geometry" />
        </mxCell>
      </root>
    </mxGraphModel>
  </diagram>
</mxfile>
